<mxfile host="app.diagrams.net" modified="2023-07-09T07:41:33.660Z" agent="Mozilla/5.0 (Windows NT 10.0; Win64; x64) AppleWebKit/537.36 (KHTML, like Gecko) Chrome/114.0.0.0 Safari/537.36" version="21.6.1" etag="FDifxR2L-A9zPFQNTcdn" type="github">
  <diagram name="第 1 页" id="QxVJEelRd44PHR0q-CuS">
    <mxGraphModel>
      <root>
        <mxCell id="0" />
        <mxCell id="1" parent="0" />
      </root>
    </mxGraphModel>
  </diagram>
</mxfile>
